<svg xmlns:xlink="http://www.w3.org/1999/xlink" xmlns="http://www.w3.org/2000/svg" class="icon icon--logo" viewBox="0 0 44.3 20" width="106"  height="48" ><defs><symbol viewBox="0 0 44.3 20" id="icon__dotti"><rect x="39.49" y="8.91" width="2.08" height="10.72"></rect><polygon points="38.12 6.98 35.52 6.98 35.52 0 33.44 0 33.44 6.98 29.28 6.98 29.28 0 27.19 0 27.19 6.98 24.83 6.98 24.83 9.06 27.19 9.06 27.19 19.63 29.28 19.63 29.28 9.06 33.44 9.06 33.44 19.63 35.52 19.63 35.52 9.06 38.12 9.06 38.12 6.98"></polygon><circle cx="40.53" cy="6.94" r="1.07"></circle><path d="M19.36,8.77a5.72,5.72,0,0,0-5.82,5.62A5.72,5.72,0,0,0,19.36,20a5.72,5.72,0,0,0,5.82-5.62A5.72,5.72,0,0,0,19.36,8.77Zm0,9.31A3.69,3.69,0,1,1,23,14.38,3.69,3.69,0,0,1,19.36,18.07Z"></path><path d="M10.16,0V10.64A5.9,5.9,0,0,0,5.82,8.77,5.72,5.72,0,0,0,0,14.38,5.72,5.72,0,0,0,5.82,20a5.9,5.9,0,0,0,4.34-1.88v1.5h2.08V0ZM5.82,18.07a3.69,3.69,0,1,1,3.69-3.69A3.69,3.69,0,0,1,5.82,18.07Z"></path><path d="M43,18.56h-.57v.12h.24v.86h.13v-.86H43v-.12Z"></path><path d="M42.77,19.51h-.06v-.86h-.24v-.05H43v.05h-.24Z"></path><path d="M43.36,18.55l-.21,1h.13l.14-.68.31.77.31-.77.14.68h.12l-.23-1.1-.35.86-.35-.86Z"></path><path d="M44,18.75h0l-.32.79-.32-.79h0l-.16.76h-.06l.2-.95.34.83.34-.83.2.95h-.06Z"></path></symbol></defs><use xlink:href="#icon__dotti"></use></svg>